<svg width="128" height="128" viewBox="0 0 128 128" fill="none" xmlns="http://www.w3.org/2000/svg">
<rect width="128" height="128" rx="32" fill="#111111"/>
<path d="M106.8 71C106.067 77.3333 103.833 82.9333 100.1 87.8C96.4333 92.6 91.5667 96.3333 85.5 99C79.5 101.667 72.6333 103 64.9 103C56.3667 103 48.8667 101.367 42.4 98.1C36 94.8333 31 90.3 27.4 84.5C23.8 78.6333 22 71.8 22 64C22 56.2 23.8 49.4 27.4 43.6C31 37.7333 36 33.1667 42.4 29.9C48.8667 26.6333 56.3667 25 64.9 25C72.6333 25 79.5 26.3333 85.5 29C91.5667 31.6667 96.4333 35.4 100.1 40.2C103.833 45 106.067 50.6 106.8 57H89.7C89.0333 53.4667 87.6 50.4333 85.4 47.9C83.2 45.3 80.3667 43.3 76.9 41.9C73.4333 40.5 69.4 39.8 64.8 39.8C59.5333 39.8 54.9667 40.8 51.1 42.8C47.3 44.7333 44.3667 47.5333 42.3 51.2C40.2333 54.8 39.2 59.0667 39.2 64C39.2 68.9333 40.2333 73.2333 42.3 76.9C44.3667 80.5 47.3 83.3 51.1 85.3C54.9667 87.2333 59.5333 88.2 64.8 88.2C69.4 88.2 73.4333 87.5333 76.9 86.2C80.3667 84.8 83.2 82.8333 85.4 80.3C87.6 77.7 89.0333 74.6 89.7 71H106.8Z" fill="#CCCCCC"/>
</svg>
